PathFileType	4	(X/Y/Z)	/Users/niels/Desktop/University/Third Semester/Perception and Action/Exam/Gymnastics Motion Tracking/Code for Gym Tracking/Analyzed Data/Webcam_Backflip/temp_id5_4_baseline_Sports2D/temp_id5_4_baseline_Sports2D_px_person00.trc
DataRate	CameraRate	NumFrames	NumMarkers	Units	OrigDataRate	OrigDataStartFrame	OrigNumFrames
29.810126582278482	29.810126582278482	7	22	m	29.810126582278482	39	158
Frame#	Time	Hip			RHip			RKnee			RAnkle			RBigToe			RSmallToe			RHeel			LHip			LKnee			LAnkle			LBigToe			LSmallToe			LHeel			Neck			Head			Nose			RShoulder			RElbow			RWrist			LShoulder			LElbow			LWrist		
		X1	Y1	Z1	X2	Y2	Z2	X3	Y3	Z3	X4	Y4	Z4	X5	Y5	Z5	X6	Y6	Z6	X7	Y7	Z7	X8	Y8	Z8	X9	Y9	Z9	X10	Y10	Z10	X11	Y11	Z11	X12	Y12	Z12	X13	Y13	Z13	X14	Y14	Z14	X15	Y15	Z15	X16	Y16	Z16	X17	Y17	Z17	X18	Y18	Z18	X19	Y19	Z19	X20	Y20	Z20	X21	Y21	Z21	X22	Y22	Z22
39	1.30828025477707	0.9644197943088494	-0.5901682119957713	0.0	0.967667215919469	-0.5905511246026895	0.0	0.9936865133494945	-0.7012328774432645	0.0	0.9742336456064721	-0.8100019498339498	0.0	0.9974802231458898	-0.8313276528268364	0.0	0.9908675108958196	-0.8364366526508962	0.0	0.9635196005255152	-0.8229983330519541	0.0	0.9593750582788773	-0.5906581823586374	0.0	0.9878174716902525	-0.6995606771445991	0.0	0.971457952873343	-0.8040616972562928	0.0	0.9999873998685221	-0.8184178767407054	0.0	0.9939742135632246	-0.8194911684190976	0.0	0.956630434573881	-0.8132428891084716	0.0	0.9339737975559903	-0.452661980912169	0.0	0.9100450128287446	-0.38646579935765757	0.0	0.9419835655131401	-0.4093660658088335	0.0	0.9401015958582083	-0.4554010791528823	0.0	0.9733170882001595	-0.4198915958090726	0.0	0.9666386586862157	-0.3618713735834403	0.0	0.9250986261188869	-0.4584835831449159	0.0	0.9553026421046994	-0.4274732085835053	0.0	0.957207979068093	-0.3753938687598142	0.0
40	1.3418259023354564	0.9641142902099853	-0.5586020747410702	0.0	0.9675914017046527	-0.5590394477091785	0.0	1.0035865707997884	-0.6617259191115312	0.0	0.9816811024303125	-0.7747947385236271	0.0	1.0027928307071967	-0.8008491857025978	0.0	0.9960948501529987	-0.803677244266302	0.0	0.9703513707699083	-0.7883280546784507	0.0	0.9589810962640017	-0.5596924699709119	0.0	0.9968489245078056	-0.660591073800966	0.0	0.9787513831423725	-0.7691182883450944	0.0	1.0041608698056386	-0.7905433112777399	0.0	0.9986296999131309	-0.791224353051159	0.0	0.964170772471049	-0.7798327543486063	0.0	0.9194935887322919	-0.4254818620936918	0.0	0.8866581143614446	-0.36151703206610647	0.0	0.9233121173984765	-0.38175509267623076	0.0	0.9231090172917094	-0.4289223100433789	0.0	0.9485399509893967	-0.40147633309201813	0.0	0.946773666122799	-0.34571888356794533	0.0	0.9121470942919165	-0.4308678521188687	0.0	0.9391137667159178	-0.4088120913721089	0.0	0.9416139181355184	-0.35837633211700226	0.0
41	1.3753715498938428	0.961323456073606	-0.5267675493277134	0.0	0.9645921882327457	-0.5273416314691997	0.0	1.017368177784194	-0.6132879887955313	0.0	0.9931440098249178	-0.7296047958832153	0.0	1.0137562593399292	-0.7598534732816021	0.0	1.0072380972154844	-0.7611321242801279	0.0	0.9810644528812557	-0.7433454710583942	0.0	0.9569070417046162	-0.5281513484927693	0.0	1.010075706309633	-0.6125368860082454	0.0	0.9902151304218486	-0.7243317870245091	0.0	1.0144483281536647	-0.7517295884818477	0.0	1.0091307292733185	-0.7521861853927486	0.0	0.9755514450518256	-0.7367456861150097	0.0	0.9036040614842774	-0.3991406702105602	0.0	0.8623730612081482	-0.3384330953250501	0.0	0.9032325988903672	-0.3553093712672609	0.0	0.9053595832938603	-0.4035294093541196	0.0	0.9286665740080823	-0.3908634037004387	0.0	0.9371721298426874	-0.3386662831372053	0.0	0.8979857064410129	-0.4042304845817659	0.0	0.926221122692991	-0.3955710268648965	0.0	0.9355189555091318	-0.3483770191560976	0.0
42	1.4089171974522292	0.9566792033769643	-0.49810932617844955	0.0	0.9595895300359681	-0.498702567556439	0.0	1.0308725193430828	-0.5583873456299213	0.0	1.0079796168610744	-0.6760198308623576	0.0	1.030059603949856	-0.7074611516211322	0.0	1.0241352220397373	-0.7083222248735714	0.0	0.9956303134778495	-0.6898996856994006	0.0	0.9533621762948087	-0.4992607818724445	0.0	1.0234537631093994	-0.557768281383331	0.0	1.0050685813427869	-0.6710954901328264	0.0	1.0302067746813564	-0.7009261734731093	0.0	1.0251741075051921	-0.7012320967263198	0.0	0.9905570343106114	-0.6854304192710284	0.0	0.8872958365009496	-0.376544661210541	0.0	0.8386504602456702	-0.32034544823328676	0.0	0.882498723832126	-0.3326821386968303	0.0	0.8886698205221192	-0.3813722529443141	0.0	0.9162776410259206	-0.3851240823112995	0.0	0.9375607376192193	-0.3366676939369422	0.0	0.8834526269809979	-0.38147483553036793	0.0	0.9168717842253173	-0.385989798906311	0.0	0.9369269504919567	-0.3425352345142981	0.0
43	1.4424628450106156	0.9517149696748239	-0.47466335199275544	0.0	0.9545210394339245	-0.47495747906715274	0.0	1.039162743385025	-0.5002201043919834	0.0	1.0247370839612155	-0.616148864868174	0.0	1.0501069099160927	-0.6435884833725886	0.0	1.045288261855822	-0.6453167978120747	0.0	1.0133741455989382	-0.6304325336792251	0.0	0.9492345868958351	-0.4751892440876881	0.0	1.0318713488092088	-0.49977271853765326	0.0	1.0215921180056091	-0.6112975883063895	0.0	1.0490426412825726	-0.6381598521348987	0.0	1.0445941988570282	-0.6384038668400435	0.0	1.0085125932770331	-0.6277326940229578	0.0	0.8717431488124975	-0.35982522766370445	0.0	0.8169373575468667	-0.309633730062977	0.0	0.862178143828014	-0.3161597324664429	0.0	0.8744697714837543	-0.3641089012744866	0.0	0.9116165295175307	-0.3804147525327243	0.0	0.9450759592515683	-0.33521620203599234	0.0	0.8698599623357606	-0.3648799636624453	0.0	0.9110053068893758	-0.37829757603664	0.0	0.9424006258491553	-0.3383129153589911	0.0
44	1.476008492569002	0.9483267134867681	-0.4563247933442775	0.0	0.9515069080668572	-0.45592916931130384	0.0	1.038385981355918	-0.44268922070039723	0.0	1.0410652056616547	-0.5523150687477917	0.0	1.0702480239078185	-0.5698688452466681	0.0	1.0671186240906203	-0.5734721812630259	0.0	1.03242285081589	-0.5672873996392922	0.0	0.9458293539878736	-0.4562270490971009	0.0	1.0312133755226833	-0.44297714173418834	0.0	1.0370933363610768	-0.547306619141756	0.0	1.0669252082584317	-0.5655405720140237	0.0	1.0633513480711196	-0.5658484937671016	0.0	1.02774006885655	-0.5656639020019066	0.0	0.8580240812755472	-0.3502573840722784	0.0	0.7984811467029593	-0.3077738844886008	0.0	0.8434100999947686	-0.30750810631804554	0.0	0.8635264530701305	-0.35278479325918505	0.0	0.9128680730397788	-0.3739636650867806	0.0	0.9551688021185397	-0.33109626415625987	0.0	0.858450663273155	-0.3558558297637894	0.0	0.9076971922148455	-0.37164413365765153	0.0	0.9481152597824442	-0.33426706490173896	0.0
45	1.5095541401273884	0.9479913214550924	-0.44119364521574306	0.0	0.9518368553074448	-0.43981034092176	0.0	1.02713439816603	-0.3900629179739742	0.0	1.0537170243404215	-0.48704175213350587	0.0	1.0849739626092478	-0.49023185011821346	0.0	1.0840870933415672	-0.49596685838209076	0.0	1.0493428614436908	-0.5025023478926599	0.0	0.944322125188461	-0.4408746729918296	0.0	1.020019378078076	-0.3919350241576456	0.0	1.0481903776204207	-0.48208671723945284	0.0	1.0788807141292855	-0.4876700175200422	0.0	1.0762083164962468	-0.4881473933033073	0.0	1.045150507873158	-0.5015110436774256	0.0	0.8470636358028156	-0.34831293534241664	0.0	0.7843628249642904	-0.3153988579509786	0.0	0.8272570055502723	-0.3077272572743693	0.0	0.856007267862085	-0.34783242958506516	0.0	0.917096246129874	-0.36516823838747275	0.0	0.9629050889812008	-0.3234219764022552	0.0	0.8500610735248321	-0.35480683600564483	0.0	0.9054167309139985	-0.36623865358809893	0.0	0.9507899780238327	-0.33024336395708315	0.0
